<svg width="299" height="108" viewBox="0 0 299 108" fill="none" xmlns="http://www.w3.org/2000/svg">
    <path fill-rule="evenodd" clip-rule="evenodd" d="M102.941 18.3893L102.939 18.3875C97.5131 13.2246 91.0561 9.11761 83.9364 6.30453C76.8171 3.49163 69.177 2.02844 61.4537 2H60.9998C45.3334 2 30.3199 7.86323 19.2592 18.2827C8.2006 28.7003 2 42.8164 2 57.5217V87.9565C2 91.1307 3.33799 94.1879 5.74113 96.4518C8.14628 98.7175 11.4205 100 14.8461 100H24.0768C27.5025 100 30.7767 98.7175 33.1818 96.4518C35.585 94.1879 36.9229 91.1307 36.9229 87.9565V66.2174C36.9229 63.0432 35.585 59.986 33.1818 57.7221C30.7767 55.4564 27.5025 54.1739 24.0768 54.1739H9.33684L9.44309 53.0775C10.6203 40.9289 16.5746 29.647 26.1177 21.4408C35.6592 13.236 48.1013 8.69505 60.9998 8.69565H61.3903C74.2359 8.74678 86.6074 13.3151 96.0782 21.5191C105.551 29.7245 111.441 40.9784 112.574 53.0807L112.676 54.1739H97.9227C94.4971 54.1739 91.2229 55.4564 88.8177 57.7221C86.4146 59.986 85.0766 63.0432 85.0766 66.2174V87.9565C85.0766 91.1307 86.4146 94.1879 88.8177 96.4518C91.2229 98.7175 94.4971 100 97.9227 100H107.153C110.579 100 113.853 98.7175 116.258 96.4518C118.662 94.1879 120 91.1307 120 87.9565V57.5177C120.029 50.2642 118.539 43.075 115.613 36.3614C112.687 29.6477 108.382 23.5397 102.941 18.3893ZM61.4555 1C69.3029 1.02866 77.0672 2.5152 84.3038 5.37449C91.5405 8.23378 98.1074 12.4097 103.628 17.663C109.165 22.9038 113.549 29.1222 116.53 35.9619C119.511 42.8016 121.03 50.1281 121 57.5217V87.9565C121 91.4159 119.541 94.7335 116.944 97.1797C114.347 99.6258 110.826 101 107.153 101H97.9227C94.2505 101 90.7287 99.6258 88.132 97.1797C85.5354 94.7335 84.0766 91.4159 84.0766 87.9565V66.2174C84.0766 62.758 85.5354 59.4404 88.132 56.9943C90.7287 54.5481 94.2505 53.1739 97.9227 53.1739H111.578C111.547 52.8399 111.512 52.5066 111.474 52.1739C110.142 40.7179 104.446 30.0909 95.4235 22.275C86.1386 14.2321 73.9998 9.74585 61.3863 9.69565H60.9998C48.3336 9.69506 36.1245 14.1547 26.7697 22.199C17.6778 30.0172 11.9202 40.6726 10.5466 52.1739C10.5069 52.5066 10.4708 52.8399 10.4384 53.1739H24.0768C27.7491 53.1739 31.2709 54.5481 33.8675 56.9943C36.4642 59.4404 37.9229 62.758 37.9229 66.2174V87.9565C37.9229 91.4159 36.4642 94.7335 33.8675 97.1797C31.2709 99.6258 27.7491 101 24.0768 101H14.8461C11.1739 101 7.65208 99.6258 5.05543 97.1797C2.45878 94.7335 1 91.4159 1 87.9565V57.5217C1 42.5312 7.32139 28.1547 18.5735 17.5548C29.8257 6.95495 45.0868 1 60.9998 1H61.4555ZM9.23074 60.8696H24.0768C25.5475 60.8696 26.9691 61.4194 28.0261 62.4151C29.0852 63.4128 29.6922 64.7791 29.6922 66.2174V87.9565C29.6922 89.3948 29.0852 90.7611 28.0261 91.7588C26.9691 92.7546 25.5475 93.3043 24.0768 93.3043H14.8461C13.3754 93.3043 11.9539 92.7546 10.8969 91.7588C9.83779 90.7611 9.23074 89.3948 9.23074 87.9565V60.8696ZM112.769 60.8696V87.9565C112.769 89.3948 112.162 90.7611 111.103 91.7588C110.046 92.7546 108.624 93.3043 107.153 93.3043H97.9227C96.4521 93.3043 95.0305 92.7546 93.9735 91.7588C92.9144 90.7611 92.3074 89.3948 92.3074 87.9565V66.2174C92.3074 64.7791 92.9144 63.4128 93.9735 62.4151C95.0305 61.4194 96.4521 60.8696 97.9227 60.8696H112.769ZM27.3404 63.143C26.4748 62.3276 25.3009 61.8696 24.0768 61.8696H10.2307V87.9565C10.2307 89.1096 10.717 90.2155 11.5825 91.0309C12.4481 91.8463 13.622 92.3043 14.8461 92.3043H24.0768C25.3009 92.3043 26.4748 91.8463 27.3404 91.0309C28.2059 90.2155 28.6922 89.1096 28.6922 87.9565V66.2174C28.6922 65.0643 28.2059 63.9584 27.3404 63.143ZM110.417 91.0309C111.283 90.2155 111.769 89.1096 111.769 87.9565V61.8696H97.9227C96.6987 61.8696 95.5247 62.3276 94.6592 63.143C93.7936 63.9584 93.3074 65.0643 93.3074 66.2174V87.9565C93.3074 89.1096 93.7936 90.2155 94.6592 91.0309C95.5247 91.8463 96.6987 92.3043 97.9227 92.3043H107.153C108.378 92.3043 109.551 91.8463 110.417 91.0309Z" stroke="#080808" stroke-width="2"/>
    <path d="M290.717 76.812C291.455 75.6093 292.411 74.6663 293.587 73.983C294.789 73.2997 296.156 72.958 297.687 72.958V78.985H296.17C294.366 78.985 292.999 79.4087 292.07 80.256C291.168 81.1033 290.717 82.5793 290.717 84.684V96H284.977V73.286H290.717V76.812Z" stroke="black" stroke-width="2"/>
    <path d="M275.867 84.151C275.867 84.971 275.812 85.709 275.703 86.365H259.098C259.235 88.005 259.809 89.2897 260.82 90.219C261.831 91.1483 263.075 91.613 264.551 91.613C266.683 91.613 268.2 90.6973 269.102 88.866H275.293C274.637 91.0527 273.38 92.8567 271.521 94.278C269.662 95.672 267.38 96.369 264.674 96.369C262.487 96.369 260.519 95.8907 258.77 94.934C257.048 93.95 255.695 92.5697 254.711 90.793C253.754 89.0163 253.276 86.9663 253.276 84.643C253.276 82.2923 253.754 80.2287 254.711 78.452C255.668 76.6753 257.007 75.3087 258.729 74.352C260.451 73.3953 262.433 72.917 264.674 72.917C266.833 72.917 268.76 73.3817 270.455 74.311C272.177 75.2403 273.503 76.566 274.432 78.288C275.389 79.9827 275.867 81.937 275.867 84.151ZM269.922 82.511C269.895 81.035 269.362 79.8597 268.323 78.985C267.284 78.083 266.013 77.632 264.51 77.632C263.089 77.632 261.886 78.0693 260.902 78.944C259.945 79.7913 259.358 80.9803 259.139 82.511H269.922Z" stroke="black" stroke-width="2"/>
    <path d="M246.738 73.286L232.675 106.742H226.566L231.486 95.426L222.384 73.286H228.821L234.684 89.153L240.629 73.286H246.738Z" stroke="black" stroke-width="2"/>
    <path d="M190.825 84.561C190.825 82.265 191.276 80.2287 192.178 78.452C193.107 76.6753 194.351 75.3087 195.909 74.352C197.494 73.3953 199.257 72.917 201.198 72.917C202.892 72.917 204.368 73.2587 205.626 73.942C206.91 74.6253 207.935 75.4863 208.701 76.525V73.286H214.482V96H208.701V92.679C207.963 93.745 206.938 94.6333 205.626 95.344C204.341 96.0273 202.851 96.369 201.157 96.369C199.243 96.369 197.494 95.877 195.909 94.893C194.351 93.909 193.107 92.5287 192.178 90.752C191.276 88.948 190.825 86.8843 190.825 84.561ZM208.701 84.643C208.701 83.249 208.427 82.06 207.881 81.076C207.334 80.0647 206.596 79.2993 205.667 78.78C204.737 78.2333 203.74 77.96 202.674 77.96C201.608 77.96 200.624 78.2197 199.722 78.739C198.82 79.2583 198.082 80.0237 197.508 81.035C196.961 82.019 196.688 83.1943 196.688 84.561C196.688 85.9277 196.961 87.1303 197.508 88.169C198.082 89.1803 198.82 89.9593 199.722 90.506C200.651 91.0527 201.635 91.326 202.674 91.326C203.74 91.326 204.737 91.0663 205.667 90.547C206.596 90.0003 207.334 89.235 207.881 88.251C208.427 87.2397 208.701 86.037 208.701 84.643Z" stroke="black" stroke-width="2"/>
    <path d="M181.71 65.6599V95.9999H175.97V65.6599H181.71Z" stroke="black" stroke-width="2"/>
    <path d="M166.974 76.238C166.974 77.7686 166.605 79.2036 165.867 80.543C165.157 81.8823 164.022 82.962 162.464 83.782C160.934 84.602 158.993 85.012 156.642 85.012H151.845V96H146.105V67.382H156.642C158.856 67.382 160.742 67.7646 162.3 68.53C163.858 69.2953 165.02 70.3476 165.785 71.687C166.578 73.0263 166.974 74.5433 166.974 76.238ZM156.396 80.379C157.982 80.379 159.157 80.0236 159.922 79.313C160.688 78.575 161.07 77.55 161.07 76.238C161.07 73.45 159.512 72.056 156.396 72.056H151.845V80.379H156.396Z" stroke="black" stroke-width="2"/>
    <path d="M266.269 22.643C266.269 20.2923 266.747 18.2423 267.704 16.493C268.66 14.7163 269.986 13.3497 271.681 12.393C273.375 11.409 275.316 10.917 277.503 10.917C280.318 10.917 282.641 11.6277 284.473 13.049C286.331 14.443 287.575 16.411 288.204 18.953H282.013C281.685 17.969 281.124 17.2037 280.332 16.657C279.566 16.083 278.61 15.796 277.462 15.796C275.822 15.796 274.523 16.3973 273.567 17.6C272.61 18.7753 272.132 20.4563 272.132 22.643C272.132 24.8023 272.61 26.4833 273.567 27.686C274.523 28.8613 275.822 29.449 277.462 29.449C279.785 29.449 281.302 28.4103 282.013 26.333H288.204C287.575 28.793 286.331 30.7473 284.473 32.196C282.614 33.6447 280.291 34.369 277.503 34.369C275.316 34.369 273.375 33.8907 271.681 32.934C269.986 31.95 268.66 30.5833 267.704 28.834C266.747 27.0573 266.269 24.9937 266.269 22.643Z" stroke="black" stroke-width="2"/>
    <path d="M254.325 8.57996C253.313 8.57996 252.466 8.26562 251.783 7.63696C251.127 6.98096 250.799 6.17462 250.799 5.21796C250.799 4.26129 251.127 3.46862 251.783 2.83996C252.466 2.18396 253.313 1.85596 254.325 1.85596C255.336 1.85596 256.17 2.18396 256.826 2.83996C257.509 3.46862 257.851 4.26129 257.851 5.21796C257.851 6.17462 257.509 6.98096 256.826 7.63696C256.17 8.26562 255.336 8.57996 254.325 8.57996ZM257.154 11.286V34H251.414V11.286H257.154Z" stroke="black" stroke-width="2"/>
    <path d="M232.844 34.369C230.985 34.369 229.318 34.041 227.842 33.385C226.366 32.7017 225.19 31.786 224.316 30.638C223.468 29.49 223.004 28.219 222.922 26.825H228.703C228.812 27.6997 229.236 28.424 229.974 28.998C230.739 29.572 231.682 29.859 232.803 29.859C233.896 29.859 234.743 29.6403 235.345 29.203C235.973 28.7657 236.288 28.2053 236.288 27.522C236.288 26.784 235.905 26.2373 235.14 25.882C234.402 25.4993 233.213 25.0893 231.573 24.652C229.878 24.242 228.484 23.8183 227.391 23.381C226.325 22.9437 225.395 22.274 224.603 21.372C223.837 20.47 223.455 19.2537 223.455 17.723C223.455 16.4657 223.81 15.3177 224.521 14.279C225.259 13.2403 226.297 12.4203 227.637 11.819C229.003 11.2177 230.602 10.917 232.434 10.917C235.14 10.917 237.299 11.6003 238.912 12.967C240.524 14.3063 241.413 16.124 241.577 18.42H236.083C236.001 17.518 235.618 16.8073 234.935 16.288C234.279 15.7413 233.39 15.468 232.27 15.468C231.231 15.468 230.425 15.6593 229.851 16.042C229.304 16.4247 229.031 16.9577 229.031 17.641C229.031 18.4063 229.413 18.994 230.179 19.404C230.944 19.7867 232.133 20.183 233.746 20.593C235.386 21.003 236.739 21.4267 237.805 21.864C238.871 22.3013 239.786 22.9847 240.552 23.914C241.344 24.816 241.754 26.0187 241.782 27.522C241.782 28.834 241.413 30.0093 240.675 31.048C239.964 32.0867 238.925 32.9067 237.559 33.508C236.219 34.082 234.648 34.369 232.844 34.369Z" stroke="black" stroke-width="2"/>
    <path d="M213.568 11.286V34H207.787V31.13C207.049 32.114 206.079 32.893 204.876 33.467C203.701 34.0137 202.416 34.287 201.022 34.287C199.246 34.287 197.674 33.918 196.307 33.18C194.941 32.4147 193.861 31.3077 193.068 29.859C192.303 28.383 191.92 26.6337 191.92 24.611V11.286H197.66V23.791C197.66 25.595 198.111 26.989 199.013 27.973C199.915 28.9297 201.145 29.408 202.703 29.408C204.289 29.408 205.532 28.9297 206.434 27.973C207.336 26.989 207.787 25.595 207.787 23.791V11.286H213.568Z" stroke="black" stroke-width="2"/>
    <path d="M181.53 5.38196V34H175.79V15.386L168.123 34H163.777L156.069 15.386V34H150.329V5.38196H156.848L165.95 26.661L175.052 5.38196H181.53Z" stroke="black" stroke-width="2"/>
    </svg>
    